<svg xmlns="http://www.w3.org/2000/svg" data-name="Layer 2" viewBox="0 0 100 125" x="0px" y="0px"><title>e_0086_cubic_exp</title><path d="M84.14111,43.8374v-2a.5.5,0,0,1,1,0v2a.5.5,0,0,1-1,0Zm0,4a.5.5,0,0,0,1,0v-2a.5.5,0,0,0-1,0Zm0,4a.5.5,0,0,0,1,0v-2a.5.5,0,0,0-1,0Zm0,4a.5.5,0,0,0,1,0v-2a.5.5,0,0,0-1,0Zm1,3.15332V57.8374a.5.5,0,0,0-1,0v1.15332a.98579.98579,0,0,0-.5.84668v8.43036l-7.16162-4.13495a.9838.9838,0,0,0-.98395.00934l-.998-.57623a.50008.50008,0,1,0-.5.86621l.99853.57654a.986.986,0,0,0,.4834.85656l7.16162,4.13489-7.1582,4.1322a1.00016,1.00016,0,0,0,1,1.73243l8.6582-4.99854a1020.0272,1020.0272,0,0,0,.20447-.15716,1.00109,1.00109,0,0,0,.15918-.20569L85.50732,70.5l.00031-.00092a.99755.99755,0,0,0,.11121-.331c.00518-.03027.00946-.0589.01184-.08929.00213-.02661.01043-.05182.01043-.0788V59.8374A.98576.98576,0,0,0,85.14111,58.99072Zm-21.543,22.58106-1.73242,1a.50008.50008,0,0,0,.5.86621l1.73242-1a.50008.50008,0,1,0-.5-.86621Zm-3.46435,2-.9986.5766a.98216.98216,0,0,0-.98333-.00971L51,88.26788V79.99854a1,1,0,1,0-2,0v8.26928l-7.165-4.137a1.00016,1.00016,0,1,0-1,1.73242L49.5,90.86621c.02374.01373.05011.01923.07465.03082.02673.01276.05291.023.08093.03339a.88723.88723,0,0,0,.68884,0c.028-.01038.0542-.02063.08093-.03339.02454-.01159.05091-.01709.07465-.03082l8.65186-4.99512a.986.986,0,0,0,.48339-.85656l.99854-.57654a.50008.50008,0,0,0-.5-.86621Zm6.92822-4-1.73193,1a.50008.50008,0,0,0,.5.86621l1.73193-1a.50008.50008,0,1,0-.5-.86621Zm6.92822-4-1.73193,1a.50008.50008,0,0,0,.5.86621l1.73193-1a.50008.50008,0,1,0-.5-.86621Zm-3.46386,2-1.73242,1a.50008.50008,0,0,0,.5.86621l1.73242-1a.50008.50008,0,0,0-.5-.86621Zm-41.061-.00489-1.73193-1a.50008.50008,0,0,0-.5.86622l1.73193,1a.50008.50008,0,1,0,.5-.86622Zm-3.46435-2-.99854-.57653a.986.986,0,0,0-.4834-.85657l-7.16015-4.13361,7.16015-4.134a1.00016,1.00016,0,1,0-1-1.73242l-7.16015,4.134V59.8374a1,1,0,1,0-2,0V70c0,.027.0083.05219.01043.0788.00238.03039.00666.059.01184.08929a.99755.99755,0,0,0,.11121.331l.00031.00092.00256.00336a1.00109,1.00109,0,0,0,.15918.20569,1020.0272,1020.0272,0,0,0,.20447.15716l8.66015,5a.99711.99711,0,0,0,.999-.00067l.983.56757a.50008.50008,0,0,0,.5-.86622Zm6.92822,4-1.73193-1a.50008.50008,0,0,0-.5.86622l1.73193,1a.50008.50008,0,0,0,.5-.86622Zm3.46435,2-1.73193-1a.50008.50008,0,0,0-.5.86622l1.73193,1a.50008.50008,0,1,0,.5-.86622Zm3.46387,2-1.73193-1a.50008.50008,0,0,0-.5.86622l1.73193,1a.50008.50008,0,1,0,.5-.86622ZM15.35889,55.5a.49971.49971,0,0,0-.5.5v2a.5.5,0,0,0,1,0V56A.49972.49972,0,0,0,15.35889,55.5Zm.5-3.5a.5.5,0,0,0-1,0v2a.5.5,0,0,0,1,0Zm0-8a.5.5,0,0,0-1,0v2a.5.5,0,0,0,1,0Zm0,4a.5.5,0,0,0-1,0v2a.5.5,0,0,0,1,0Zm-1-7.15332V42a.5.5,0,0,0,1,0V40.84668a.98579.98579,0,0,0,.5-.84668V31.73218l7.1582,4.13257a1.00016,1.00016,0,0,0,1-1.73243L17.359,29.99982l7.15912-4.13312a1.00016,1.00016,0,1,0-1-1.73242l-8.65918,4.99951c-.0232.01343-.04077.03308-.06263.04816-.02551.01751-.04864.03576-.07257.05578a.995.995,0,0,0-.23077.262L14.49268,29.5l-.00031.00092a.99755.99755,0,0,0-.11121.331c-.00518.03027-.00946.0589-.01184.08929-.00213.02661-.01043.05182-.01043.0788V40A.98576.98576,0,0,0,14.85889,40.84668ZM32.6748,20.50293a.49724.49724,0,0,0,.24952-.06689l1.73193-1a.50008.50008,0,1,0-.5-.86622l-1.73193,1a.5.5,0,0,0,.25048.93311Zm3.46387-2a.49721.49721,0,0,0,.24951-.06689l1.73243-1a.50008.50008,0,0,0-.5-.86622l-1.73243,1a.5.5,0,0,0,.25049.93311Zm-6.92822,4A.49721.49721,0,0,0,29.46,22.436l1.73242-1a.50008.50008,0,1,0-.5-.86622l-1.73242,1a.5.5,0,0,0,.25049.93311Zm10.39258-6a.49721.49721,0,0,0,.24951-.06689l.983-.56757a.99709.99709,0,0,0,.999.00067L49,11.73212v8.26593a.98576.98576,0,0,0,.5.84668v1.15332a.5.5,0,1,0,1,0V20.84473a.98576.98576,0,0,0,.5-.84668V11.73212l7.15186,4.12921a1.00016,1.00016,0,0,0,1-1.73242L50.5,9.13379c-.0238-.01373-.05023-.01929-.07477-.03088-.02661-.01264-.05267-.02295-.0805-.03327a.9873.9873,0,0,0-.68933-.00006c-.0279.01038-.054.02063-.08069.03333-.02454.01159-.051.01715-.07471.03088l-8.66553,5.00293a.986.986,0,0,0-.4834.85657l-.99853.57653a.5.5,0,0,0,.25049.93311Zm-13.85645,8a.49721.49721,0,0,0,.24951-.06689l1.73194-1a.50008.50008,0,0,0-.5-.86622l-1.73194,1a.5.5,0,0,0,.25049.93311Zm34.397-8.06934,1.73194,1a.50008.50008,0,0,0,.5-.86621l-1.73194-1a.50008.50008,0,0,0-.5.86621Zm3.46387,2,1.73194,1a.50008.50008,0,0,0,.5-.86621l-1.73194-1a.50008.50008,0,0,0-.5.86621Zm6.92822,4,1.73194,1a.50008.50008,0,0,0,.5-.86621l-1.73194-1a.50008.50008,0,0,0-.5.86621Zm-3.46386-2,1.73193,1a.50008.50008,0,1,0,.5-.86621l-1.73193-1a.50008.50008,0,1,0-.5.86621Zm18.5589,9.48761c-.00238-.03039-.00666-.059-.01184-.08929a.99755.99755,0,0,0-.11121-.331L85.50732,29.5l-.00024-.00024a.99584.99584,0,0,0-.23193-.26294c-.02338-.01941-.04578-.03724-.07062-.05432-.0221-.01526-.03992-.03516-.06342-.04871l-8.65918-4.99951a.98523.98523,0,0,0-.98376.00946L74.5,23.56738a.50008.50008,0,1,0-.5.86621l.99854.57654a.986.986,0,0,0,.48339.85657l7.15912,4.13312-7.1596,4.13348a.98588.98588,0,0,0-.4834.85669l-.13233.07642a.50008.50008,0,0,0,.5.86621l.11682-.06751a.99719.99719,0,0,0,.99891.00061l7.15966-4.13348V40a1,1,0,0,0,2,0V30C85.64111,29.973,85.63281,29.94781,85.63068,29.9212ZM44.55225,52.56787l-1.73194,1a.50008.50008,0,0,0,.5.86621l1.73194-1a.50008.50008,0,0,0-.5-.86621Zm-3.46387,2-1.73193,1a.50008.50008,0,0,0,.5.86621l1.73193-1a.50008.50008,0,0,0-.5-.86621Zm17.82031-.002-1.73193-1a.50008.50008,0,1,0-.5.86621l1.73193,1a.50008.50008,0,1,0,.5-.86621Zm-10.89209-3.998-1.73193,1a.50008.50008,0,0,0,.5.86621l1.73193-1a.50008.50008,0,1,0-.5-.86621Zm19.55274,8.998a.50008.50008,0,1,0-.5.86621l1.73193,1a.50008.50008,0,1,0,.5-.86621Zm-6.92823-4a.50008.50008,0,0,0-.5.86621l1.73194,1a.50008.50008,0,0,0,.5-.86621Zm-6.92822-4a.50008.50008,0,0,0-.5.86621l1.73193,1a.50008.50008,0,1,0,.5-.86621Zm10.39209,6a.50008.50008,0,0,0-.5.86621l1.73193,1a.50008.50008,0,1,0,.5-.86621ZM30.6958,60.56738l-1.73193,1a.50008.50008,0,0,0,.5.86621l1.73193-1a.50008.50008,0,1,0-.5-.86621Zm40.3374.99854a.50008.50008,0,0,0-.5.86621l1.73194,1a.50008.50008,0,0,0,.5-.86621ZM37.624,56.56787l-1.73193,1a.50008.50008,0,0,0,.5.86621l1.73193-1a.50008.50008,0,1,0-.5-.86621ZM27.23193,62.56738l-1.73193,1a.50008.50008,0,0,0,.5.86621l1.73193-1a.50008.50008,0,1,0-.5-.86621Zm6.92823-3.99951-1.73194,1a.50008.50008,0,0,0,.5.86621l1.73194-1a.50008.50008,0,0,0-.5-.86621Zm3.97461-15.99609-1.73243-1a.50008.50008,0,0,0-.5.86621l1.73243,1a.50008.50008,0,0,0,.5-.86621Zm-6.92823-4-1.73242-1a.50008.50008,0,0,0-.5.86621l1.73242,1a.50008.50008,0,1,0,.5-.86621Zm-3.46435-2-1.73194-1a.50008.50008,0,0,0-.5.86621l1.73194,1a.50008.50008,0,0,0,.5-.86621Zm6.92822,4-1.73193-1a.50008.50008,0,1,0-.5.86621l1.73193,1a.50008.50008,0,1,0,.5-.86621Zm36.5459-2.82129a.50028.50028,0,0,0,.6831.1831l1.73291-1.00048a.50008.50008,0,0,0-.5-.86622l-1.73291,1.00049A.5.5,0,0,0,71.21631,37.75049Zm-10.39893,6.0039a.50031.50031,0,0,0,.68311.18311L63.2334,42.937a.50008.50008,0,0,0-.5-.86621l-1.73291,1.00049A.49994.49994,0,0,0,60.81738,43.75439Zm3.46631-2.001a.50029.50029,0,0,0,.68311.1831l1.73291-1.001a.50008.50008,0,0,0-.5-.86621l-1.73291,1.001A.5.5,0,0,0,64.28369,41.75342ZM67.75,39.752a.50031.50031,0,0,0,.68311.18311L70.166,38.93457a.50008.50008,0,0,0-.5-.86621l-1.73291,1.00049A.49994.49994,0,0,0,67.75,39.752Zm-8.48242,4.31983-.133.07678a.98342.98342,0,0,0-.98321-.00989L50.5,48.55652v-.55847a.5.5,0,0,0-1,0v.55847l-7.65137-4.41785a.98492.98492,0,0,0-.98352.00958l-.99841-.57647a.50008.50008,0,1,0-.5.86621l.99853.57654a.98614.98614,0,0,0,.4834.85656L49,50.57751V60a.98576.98576,0,0,0,.5.84668V62a.5.5,0,0,0,1,0V60.84668A.98576.98576,0,0,0,51,60V51.15472l.48047.27741a.50008.50008,0,0,0,.5-.86621l-.48023-.27722,7.65113-4.41761a.98613.98613,0,0,0,.48333-.85644l.13288-.07666a.50008.50008,0,0,0-.5-.86621ZM50.5,64a.5.5,0,0,0-1,0v2a.5.5,0,0,0,1,0Zm0,4a.5.5,0,0,0-1,0v2a.5.5,0,0,0,1,0ZM50,75.5a.49971.49971,0,0,0-.5.5v2a.5.5,0,0,0,1,0V76A.49971.49971,0,0,0,50,75.5Zm.5-3.5a.5.5,0,0,0-1,0v2a.5.5,0,0,0,1,0Zm-1-26.00195a.5.5,0,1,0,1,0v-2a.5.5,0,0,0-1,0Zm0-8a.5.5,0,1,0,1,0v-2a.5.5,0,0,0-1,0Zm0,4a.5.5,0,1,0,1,0v-2a.5.5,0,0,0-1,0Zm0-8a.5.5,0,1,0,1,0v-2a.5.5,0,0,0-1,0Zm0-4a.5.5,0,1,0,1,0v-2a.5.5,0,0,0-1,0Zm.5-3.5a.49972.49972,0,0,0,.5-.5v-2a.5.5,0,0,0-1,0v2A.49972.49972,0,0,0,50,26.49805Z"/><text x="0" y="115" fill="#000000" font-size="5px" font-weight="bold" font-family="'Helvetica Neue', Helvetica, Arial-Unicode, Arial, Sans-serif">Created by Path Lord</text><text x="0" y="120" fill="#000000" font-size="5px" font-weight="bold" font-family="'Helvetica Neue', Helvetica, Arial-Unicode, Arial, Sans-serif">from the Noun Project</text></svg>